<!DOCTYPE svg PUBLIC "-//W3C//DTD SVG 1.1//EN" "http://www.w3.org/Graphics/SVG/1.1/DTD/svg11.dtd">
<!-- Uploaded to: SVG Repo, www.svgrepo.com, Transformed by: SVG Repo Mixer Tools -->
<svg fill="#39cd32" width="80px" height="80px" viewBox="0 0 256 256" id="Flat" xmlns="http://www.w3.org/2000/svg" stroke="#39cd32">
<g id="SVGRepo_bgCarrier" stroke-width="0"/>
<g id="SVGRepo_tracerCarrier" stroke-linecap="round" stroke-linejoin="round"/>
<g id="SVGRepo_iconCarrier"> <path d="M128,24A104,104,0,1,0,232,128,104.11791,104.11791,0,0,0,128,24Zm21.458,153.45605a35.99982,35.99982,0,0,1-50.91113,0,8.00052,8.00052,0,0,1,11.31445-11.31445A19.99959,19.99959,0,1,0,124.00293,132a8,8,0,0,1-6.55469-12.58691l19.1875-27.4209H103.99707a8,8,0,0,1,0-16h48a8,8,0,0,1,6.55469,12.58691L137.5332,118.61816A36.019,36.019,0,0,1,149.458,177.45605Z"/> </g>
</svg>